<svg xmlns="http://www.w3.org/2000/svg" version="1.1" xmlns:xlink="http://www.w3.org/1999/xlink" width="2000" height="1500" viewBox="0 0 2000 1500"><rect width="2000" height="1500" x="0" y="0" id="background" stroke="transparent" fill="#ffffff"></rect><svg xml:space="preserve" width="1500" height="1125" data-version="2" data-id="lg_Jyiqg712cxu7Yg4a7m" viewBox="0 0 565 150" x="250" y="187.5"><rect width="100%" height="100%" fill="transparent"></rect><path fill="#2d3748" d="M227.325 68.005h-35.81V2.395h7.89v58.65h27.92Z"></path><rect width="35.81" height="65.61" x="-17.91" y="-32.8" fill="none" rx="0" ry="0" transform="translate(209.92 35.7)"></rect><path fill="#2d3748" d="M261.825 68.005h-26.32v-6.58h9.21V8.975h-9.21v-6.58h26.32v6.58h-9.21v52.45h9.21Z"></path><rect width="26.32" height="65.61" x="-13.16" y="-32.8" fill="none" rx="0" ry="0" transform="translate(249.16 35.7)"></rect><path fill="#2d3748" d="M300.735 69.135q-8.46 0-14.71-3.9t-9.68-11.47q-3.43-7.57-3.43-18.57 0-10.99 3.43-18.56 3.43-7.57 9.68-11.47 6.25-3.9 14.71-3.9t14.71 3.9q6.26 3.9 9.69 11.47 3.43 7.57 3.43 18.56 0 11-3.43 18.57t-9.69 11.47q-6.25 3.9-14.71 3.9m0-7.05q5.74 0 10.06-2.68 4.33-2.68 6.82-7.47 2.49-4.8 2.49-11.28v-10.91q0-6.48-2.49-11.32-2.49-4.85-6.82-7.48-4.32-2.63-10.06-2.63-5.64 0-10.01 2.63t-6.86 7.48q-2.49 4.84-2.49 11.32v10.91q0 6.48 2.49 11.28 2.49 4.79 6.86 7.47 4.37 2.68 10.01 2.68"></path><rect width="55.65" height="67.87" x="-27.82" y="-33.94" fill="none" rx="0" ry="0" transform="translate(301.24 35.7)"></rect><path fill="#2d3748" d="m382.615 68.005-23.97-40.04-7.9-14.57h-.28v54.61h-7.71V2.395h9.12l23.97 40.04 7.9 14.57h.28V2.395h7.71v65.61Z"></path><rect width="48.98" height="65.61" x="-24.49" y="-32.8" fill="none" rx="0" ry="0" transform="translate(367.75 35.7)"></rect><path fill="#2d3748" d="M449.255 68.005h-40.04V2.395h40.04v6.95h-32.14v22h30.26v6.96h-30.26v22.74h32.14Z"></path><rect width="40.04" height="65.61" x="-20.02" y="-32.8" fill="none" rx="0" ry="0" transform="translate(429.74 35.7)"></rect><path fill="#2d3748" d="M482.445 69.135q-7.9 0-13.59-3.06-5.68-3.05-9.63-8.41l5.83-4.89q3.47 4.61 7.7 7.01 4.23 2.39 9.97 2.39 7.05 0 10.76-3.38 3.71-3.39 3.71-9.03 0-3.1-1.22-5.26-1.22-2.16-3.9-3.62-2.68-1.46-7-2.4l-5.36-1.22q-5.92-1.41-10.06-3.66-4.13-2.26-6.3-5.83-2.16-3.57-2.16-8.56 0-5.82 2.73-9.82 2.72-3.99 7.66-6.06 4.93-2.07 11.33-2.07 7.42 0 12.73 2.73 5.31 2.72 8.98 7.99l-5.92 4.32q-2.63-3.76-6.54-5.92-3.9-2.16-9.63-2.16-6.3 0-9.92 2.72-3.62 2.73-3.62 7.99 0 3.1 1.37 5.17 1.36 2.07 4.09 3.43 2.72 1.37 6.86 2.31l5.36 1.22q6.39 1.41 10.43 3.85 4.04 2.45 5.97 6.02 1.93 3.57 1.93 8.46 0 6.01-2.73 10.43t-7.76 6.86q-5.02 2.45-12.07 2.45"></path><rect width="45.78" height="67.87" x="-22.89" y="-33.94" fill="none" rx="0" ry="0" transform="translate(482.62 35.7)"></rect><path fill="#2d3748" d="M536.115 69.135q-7.9 0-13.58-3.06-5.69-3.05-9.64-8.41l5.83-4.89q3.48 4.61 7.71 7.01 4.23 2.39 9.96 2.39 7.05 0 10.76-3.38 3.72-3.39 3.72-9.03 0-3.1-1.22-5.26-1.23-2.16-3.91-3.62-2.67-1.46-7-2.4l-5.36-1.22q-5.92-1.41-10.05-3.66-4.14-2.26-6.3-5.83-2.16-3.57-2.16-8.56 0-5.82 2.72-9.82 2.73-3.99 7.66-6.06 4.94-2.07 11.33-2.07 7.43 0 12.74 2.73 5.31 2.72 8.97 7.99l-5.92 4.32q-2.63-3.76-6.53-5.92-3.9-2.16-9.64-2.16-6.29 0-9.91 2.72-3.62 2.73-3.62 7.99 0 3.1 1.36 5.17t4.09 3.43q2.73 1.37 6.86 2.31l5.36 1.22q6.39 1.41 10.43 3.85 4.05 2.45 5.97 6.02 1.93 3.57 1.93 8.46 0 6.01-2.73 10.43-2.72 4.42-7.75 6.86-5.03 2.45-12.08 2.45"></path><rect width="45.78" height="67.87" x="-22.89" y="-33.94" fill="none" rx="0" ry="0" transform="translate(536.28 35.7)"></rect><path fill="#2d3748" d="M232.585 146.605v-29.7h-33.18v29.7h-7.89v-65.61h7.89v28.95h33.18v-28.95h7.9v65.61Z"></path><rect width="48.97" height="65.61" x="-24.48" y="-32.8" fill="none" rx="0" ry="0" transform="translate(216.5 114.3)"></rect><path fill="#2d3748" d="M282.505 147.735q-8.46 0-14.71-3.9t-9.69-11.47q-3.43-7.57-3.43-18.56 0-11 3.43-18.57 3.44-7.57 9.69-11.47 6.25-3.9 14.71-3.9t14.71 3.9q6.25 3.9 9.68 11.47 3.43 7.57 3.43 18.57 0 10.99-3.43 18.56-3.43 7.57-9.68 11.47-6.25 3.9-14.71 3.9m0-7.05q5.73 0 10.06-2.68 4.32-2.68 6.81-7.47 2.49-4.8 2.49-11.28v-10.91q0-6.48-2.49-11.32t-6.81-7.48q-4.33-2.63-10.06-2.63-5.64 0-10.01 2.63-4.37 2.64-6.87 7.48-2.49 4.84-2.49 11.32v10.91q0 6.48 2.49 11.28 2.5 4.79 6.87 7.47 4.37 2.68 10.01 2.68"></path><rect width="55.65" height="67.87" x="-27.82" y="-33.94" fill="none" rx="0" ry="0" transform="translate(283 114.3)"></rect><path fill="#2d3748" d="M324.525 146.605v-65.61h10.52l12.41 23.22 6.39 12.12h.47l6.49-12.12 12.41-23.22h10.15v65.61h-7.71v-55.27h-.47l-5.54 11-15.7 28.57-15.7-28.57-5.55-11h-.47v55.27Z"></path><rect width="58.84" height="65.61" x="-29.42" y="-32.8" fill="none" rx="0" ry="0" transform="translate(354.44 114.3)"></rect><path fill="#2d3748" d="M440.895 146.605h-40.05v-65.61h40.05v6.96h-32.15v21.99h30.27v6.96h-30.27v22.75h32.15Z"></path><rect width="40.05" height="65.61" x="-20.02" y="-32.8" fill="none" rx="0" ry="0" transform="translate(421.37 114.3)"></rect><path fill="#2d3748" d="M474.075 147.735q-7.9 0-13.58-3.05-5.69-3.06-9.64-8.42l5.83-4.89q3.48 4.61 7.71 7.01 4.23 2.39 9.96 2.39 7.05 0 10.76-3.38 3.72-3.38 3.72-9.02 0-3.11-1.22-5.27-1.23-2.16-3.91-3.62-2.67-1.45-7-2.39l-5.36-1.23q-5.92-1.41-10.05-3.66-4.14-2.26-6.3-5.83-2.16-3.57-2.16-8.55 0-5.83 2.72-9.83 2.73-3.99 7.66-6.06 4.94-2.07 11.33-2.07 7.43 0 12.74 2.73 5.31 2.72 8.97 7.99l-5.92 4.32q-2.63-3.76-6.53-5.92-3.9-2.16-9.64-2.16-6.29 0-9.91 2.72-3.62 2.73-3.62 7.99 0 3.11 1.36 5.17 1.36 2.07 4.09 3.44 2.73 1.36 6.86 2.3l5.36 1.22q6.39 1.41 10.43 3.85 4.05 2.45 5.97 6.02 1.93 3.57 1.93 8.46 0 6.02-2.73 10.43-2.72 4.42-7.75 6.87-5.03 2.44-12.08 2.44"></path><rect width="45.78" height="67.87" x="-22.89" y="-33.94" fill="none" rx="0" ry="0" transform="translate(474.25 114.3)"></rect><path fill="#2d3748" d="M129.112 134.253h-2.966v-74.16h15.96L80.017 19.987l-25.066 14.95V30.43H43.087v13.704l-26.935 15.96h12.103v74.16h-2.967V63.059H5.325L40.12 42.443v-14.98h17.8v2.254l22.1-13.171 71.727 46.513h-22.634z"></path></svg></svg>