<svg xmlns="http://www.w3.org/2000/svg" version="1.1" xmlns:xlink="http://www.w3.org/1999/xlink" width="2000" height="375" viewBox="0 0 2000 375"><svg xml:space="preserve" width="2000" height="375" data-version="2" data-id="lg_XDVKKXGpfYRNBF52VI" viewBox="0 0 562 375" x="0" y="0"><rect width="100%" height="100%" fill="transparent"></rect><path fill="#000000" d="M5.36 308.647h7.66v53.94h20.62v6.96H5.36Z"></path><rect width="28.28" height="60.9" x="-14.14" y="-30.45" fill="none" rx="0" ry="0" transform="translate(20 339.6)"></rect><path fill="#000000" d="M40.95 308.647h7.65v60.9h-7.65Z"></path><rect width="7.65" height="60.9" x="-3.83" y="-30.45" fill="none" rx="0" ry="0" transform="translate(45.27 339.6)"></rect><path fill="#000000" d="M56.87 339.097q0-11.13 3.57-18.05 3.56-6.92 9.35-10.18 5.78-3.26 12.57-3.26t12.57 3.26q5.79 3.26 9.35 10.18 3.57 6.92 3.57 18.05 0 11.05-3.57 18.01-3.56 6.96-9.35 10.22-5.78 3.27-12.57 3.27t-12.57-3.27q-5.79-3.26-9.35-10.22-3.57-6.96-3.57-18.01m7.92 0q0 8.09 2.3 13.49 2.31 5.39 6.31 8.04 4 2.66 8.96 2.66 4.87 0 8.87-2.66 4.01-2.65 6.4-8.04 2.39-5.4 2.39-13.49 0-8.18-2.44-13.53-2.43-5.35-6.43-8-4.01-2.65-8.79-2.65-4.96 0-8.96 2.69-4 2.7-6.31 8.05-2.3 5.35-2.3 13.44"></path><rect width="50.98" height="62.99" x="-25.49" y="-31.5" fill="none" rx="0" ry="0" transform="translate(82.86 339.6)"></rect><path fill="#000000" d="M148.57 308.647h7.57v60.9h-10.53l-20.97-48.98h-1.13l.17 48.98h-7.48v-60.9h10.53l21.05 49.24h1.13Z"></path><rect width="39.94" height="60.9" x="-19.97" y="-30.45" fill="none" rx="0" ry="0" transform="translate(136.67 339.6)"></rect><path fill="#000000" d="M197.46 308.647v6.96h-22.79v20.71q2.87-1.22 6.48-1.87 3.61-.66 7.35-.83 3.74-.17 6.78.35v6.61l-.69.52q-2.35-.69-5.87-.69-3.53 0-7.27.61-3.74.6-6.78 2v19.57h22.79v6.96h-30.45v-60.9Z"></path><rect width="30.45" height="60.9" x="-15.22" y="-30.45" fill="none" rx="0" ry="0" transform="translate(182.74 339.6)"></rect><path fill="#000000" d="M238.52 355.107q0 4.78-2.21 8.26-2.22 3.48-6.14 5.36-3.91 1.87-9.22 1.87-4.18 0-7.7-1-3.52-1.01-6-2.4t-3.7-2.35v-7.48h1.13q2.7 2.35 7 4.26 4.31 1.92 8.66 1.92 2.79 0 5.18-.83 2.39-.82 3.83-2.65 1.43-1.83 1.43-4.53 0-3.39-1.74-5.61t-5.31-4.39l-10.52-6.61q-2.44-1.57-5.01-3.61-2.56-2.05-4.26-5.05-1.69-3-1.69-7.35 0-4.96 2.26-8.35 2.26-3.4 6.09-5.14 3.83-1.74 8.61-1.74 4.26 0 7.48.87 3.22.87 5.48 2.18 2.27 1.3 3.57 2.61v7.48h-1.22q-2.17-2.52-6.18-4.3-4-1.79-8.96-1.79-4.08 0-6.74 1.96-2.65 1.96-2.65 5.61 0 3.39 2.35 5.83t5.65 4.52l9.75 6.09q2.95 1.83 5.39 4.09 2.44 2.26 3.92 5.22 1.47 2.96 1.47 7.05"></path><rect width="36.27" height="62.91" x="-18.14" y="-31.45" fill="none" rx="0" ry="0" transform="translate(220.88 339.64)"></rect><path fill="#000000" d="M278.54 355.107q0 4.78-2.21 8.26-2.22 3.48-6.14 5.36-3.91 1.87-9.22 1.87-4.18 0-7.7-1-3.52-1.01-6-2.4t-3.7-2.35v-7.48h1.13q2.7 2.35 7 4.26 4.31 1.92 8.66 1.92 2.79 0 5.18-.83 2.39-.82 3.83-2.65 1.43-1.83 1.43-4.53 0-3.39-1.74-5.61t-5.31-4.39l-10.52-6.61q-2.44-1.57-5.01-3.61-2.56-2.05-4.26-5.05-1.69-3-1.69-7.35 0-4.96 2.26-8.35 2.26-3.4 6.09-5.14 3.83-1.74 8.61-1.74 4.26 0 7.48.87 3.22.87 5.48 2.18 2.27 1.3 3.57 2.61v7.48h-1.22q-2.17-2.52-6.17-4.3-4.01-1.79-8.97-1.79-4.08 0-6.74 1.96-2.65 1.96-2.65 5.61 0 3.39 2.35 5.83t5.65 4.52l9.75 6.09q2.95 1.83 5.39 4.09 2.44 2.26 3.92 5.22 1.47 2.96 1.47 7.05"></path><rect width="36.27" height="62.91" x="-18.14" y="-31.45" fill="none" rx="0" ry="0" transform="translate(260.9 339.64)"></rect><path fill="#000000" d="M343.97 308.647h7.74v60.9h-7.74v-26.97h-26.54v26.97h-7.65v-60.9h7.65v26.97h26.54Z"></path><rect width="41.93" height="60.9" x="-20.96" y="-30.45" fill="none" rx="0" ry="0" transform="translate(331.25 339.6)"></rect><path fill="#000000" d="M359.98 339.097q0-11.13 3.56-18.05 3.57-6.92 9.36-10.18 5.78-3.26 12.57-3.26 6.78 0 12.57 3.26 5.78 3.26 9.35 10.18 3.57 6.92 3.57 18.05 0 11.05-3.57 18.01-3.57 6.96-9.35 10.22-5.79 3.27-12.57 3.27-6.79 0-12.57-3.27-5.79-3.26-9.36-10.22-3.56-6.96-3.56-18.01m7.91 0q0 8.09 2.31 13.49 2.3 5.39 6.31 8.04 4 2.66 8.96 2.66 4.87 0 8.87-2.66 4-2.65 6.4-8.04 2.39-5.4 2.39-13.49 0-8.18-2.44-13.53-2.43-5.35-6.44-8-4-2.65-8.78-2.65-4.96 0-8.96 2.69-4.01 2.7-6.31 8.05-2.31 5.35-2.31 13.44"></path><rect width="50.98" height="62.99" x="-25.49" y="-31.5" fill="none" rx="0" ry="0" transform="translate(385.97 339.6)"></rect><path fill="#000000" d="M419.31 369.547v-60.9h12.79l13.74 49.59h.96l13.75-49.59h12.79v60.9h-7.57l.35-51.68h-1.22l-14.27 51.68h-8.61l-14.36-51.68h-1.13l.26 51.68Z"></path><rect width="54.03" height="60.9" x="-27.02" y="-30.45" fill="none" rx="0" ry="0" transform="translate(446.82 339.6)"></rect><path fill="#000000" d="M514.58 308.647v6.96h-22.8v20.71q2.87-1.22 6.48-1.87 3.61-.66 7.35-.83 3.75-.17 6.79.35v6.61l-.7.52q-2.34-.69-5.87-.69-3.52 0-7.26.61-3.74.6-6.79 2v19.57h22.8v6.96h-30.45v-60.9Z"></path><rect width="30.45" height="60.9" x="-15.22" y="-30.45" fill="none" rx="0" ry="0" transform="translate(499.86 339.6)"></rect><path fill="#000000" d="M555.64 355.107q0 4.78-2.22 8.26-2.22 3.48-6.13 5.36-3.92 1.87-9.22 1.87-4.18 0-7.7-1-3.53-1.01-6.01-2.4t-3.7-2.35v-7.48h1.14q2.69 2.35 7 4.26 4.31 1.92 8.66 1.92 2.78 0 5.17-.83 2.39-.82 3.83-2.65t1.44-4.53q0-3.39-1.74-5.61t-5.31-4.39l-10.53-6.61q-2.43-1.57-5-3.61-2.57-2.05-4.26-5.05-1.7-3-1.7-7.35 0-4.96 2.26-8.35 2.26-3.4 6.09-5.14 3.83-1.74 8.61-1.74 4.27 0 7.49.87 3.22.87 5.48 2.18 2.26 1.3 3.56 2.61v7.48h-1.21q-2.18-2.52-6.18-4.3-4-1.79-8.96-1.79-4.09 0-6.74 1.96-2.66 1.96-2.66 5.61 0 3.39 2.35 5.83t5.66 4.52l9.74 6.09q2.96 1.83 5.39 4.09 2.44 2.26 3.92 5.22t1.48 7.05"></path><rect width="36.28" height="62.91" x="-18.14" y="-31.45" fill="none" rx="0" ry="0" transform="translate(538 339.64)"></rect><path fill="#000000" d="m491.893 163.452-84.825-95.123-.028-.025c-.102-.113-.23-.198-.337-.305a8.027 8.027 0 0 0-.96-.845c-.164-.115-.347-.197-.517-.3-.324-.194-.65-.392-1.002-.538-.046-.02-.082-.054-.13-.071l-68.057-27.272a7.945 7.945 0 0 0-9.408 2.743l-85.421 119.041a7.942 7.942 0 0 0 3.5 12.006l23.291 9.332-.15 54.283a7.942 7.942 0 0 0 4.991 7.394l68.069 27.269c.028.01.059.014.087.025.33.13.67.215 1.008.294.136.034.266.084.401.11a7.936 7.936 0 0 0 2.565.062l.025-.003.062-.008 37.708-5.296a7.94 7.94 0 0 0 6.837-7.843l.026-8.767 26.958 10.798c.028.011.059.014.084.025.328.127.667.212 1.003.294.138.034.268.085.41.113.482.087.968.138 1.457.138.367 0 .737-.028 1.104-.079l.023-.003.07-.011 37.702-5.293a7.94 7.94 0 0 0 6.838-7.843l.194-68.108 21.604-3.036a7.95 7.95 0 0 0 4.818-13.158m-34.567 84.277-29.847 4.191-3.971.56-3.974.556.181-64.298-37.88 5.33-.124 43.815-.011 4.276-.014 4.273-.034 11.927-29.847 4.192-3.974.559-3.974.556.206-74.982-28.347 3.974 8.546-11.91 76.872-107.135 2.708 3.04 2.709 3.038 79.408 89.048-28.421 3.993z"></path><path fill="#000000" d="m344.967 126.39-83.425-93.553-.028-.025c-.1-.11-.225-.194-.33-.3a7.894 7.894 0 0 0-.945-.83c-.161-.114-.342-.195-.509-.295-.319-.191-.638-.386-.986-.53-.044-.02-.08-.053-.127-.07L191.682 3.966a7.814 7.814 0 0 0-9.252 2.697L98.418 123.74a7.81 7.81 0 0 0 3.442 11.808l22.908 9.178-.148 53.387a7.81 7.81 0 0 0 4.909 7.272l66.945 26.819c.028.011.058.014.086.025.325.128.658.211.992.289.133.033.26.083.394.108a7.805 7.805 0 0 0 2.522.061l.025-.002.061-.009 37.085-5.208a7.808 7.808 0 0 0 6.725-7.714l.025-8.622 26.513 10.62c.028.01.059.013.084.025.322.125.655.208.986.288.136.034.264.084.403.112a8.03 8.03 0 0 0 1.433.136c.361 0 .725-.028 1.086-.078l.022-.003.07-.011 37.08-5.205a7.808 7.808 0 0 0 6.724-7.714l.192-66.984 21.246-2.986a7.82 7.82 0 0 0 4.739-12.942m-33.996 82.887-29.355 4.122-3.905.55-3.909.547.178-63.237-37.254 5.242-.123 43.093-.01 4.205-.015 4.203-.033 11.73-29.355 4.122-3.908.55-3.908.547.203-73.745-27.88 3.909 8.405-11.714 75.604-105.367 2.663 2.99 2.664 2.988 78.098 87.578-27.952 3.928z"></path><path fill="#000000" d="m69.484 202.557 6.201-.421.265-.019c.621-.042 1.242-.085 1.869-.12.781-.046 1.563-.082 2.345-.114l1.627-.07c2.62-.09 5.254-.122 7.846-.095l2.205.023 1.09.07 1.052.008.786.034.354.015.595.024 1.421.066 1.76.114c2.776.179 5.565.43 8.292.746l.618.072 1.688.211c.566.075 1.13.154 1.693.233l1.106.157 2.769.412 2.515.462a149.887 149.887 0 0 1 13.548 3.136l1.601-3.86a152.867 152.867 0 0 0-14.4-3.36c-.012-.067-.033-.137-.042-.205-.172-1.232.297-2.822.526-4.151.716-4.15 2.02-7.755 4.078-10.468-2.363 2.14-4.39 4.774-5.772 7.57-.487.98-.72 2.07-1.389 2.977-.195-1.973.603-3.862 1.279-5.51.708-1.725 1.552-3.348 2.47-4.647-2.504 2.142-4.184 4.944-5.842 7.76-2.757-2.282-5.86-4.673-9.214-5.859 2.629 1.52 5.472 4.07 7.412 6.791.913 1.282.771 1.4.394 2.684a18.992 18.992 0 0 0-.458 2c-.697-.098-1.395-.194-2.096-.286a1.457 1.457 0 0 1-.114-.411c-.065-.532.473-1.601.75-2.176.333-.69.875-1.267 1.152-1.859-1.22.852-1.88 2.148-2.812 3.231-1.607-1.711-3.656-3.407-5.748-4.163 1.91 1.307 3.624 2.863 4.765 5.135a167.659 167.659 0 0 0-8.502-.767c.966-4.603 2.545-8.62 4.9-11.72-3.031 2.743-5.628 6.121-7.4 9.702-.294.593-.516 1.218-.759 1.834l-.966-.04c.245-1.792.952-3.5 1.587-5.04.905-2.21 1.985-4.292 3.164-5.956-3.207 2.748-5.361 6.336-7.486 9.945-3.533-2.926-7.514-5.988-11.814-7.508 3.28 1.894 6.81 5.042 9.287 8.42a178.32 178.32 0 0 0-8.962.134 12.984 12.984 0 0 0-2.27-1.108c.528.362 1.04.744 1.542 1.14-.803.034-1.606.071-2.41.117-.729.042-1.455.092-2.18.14 3.359-8.103 7.652-14.873 13.057-19.604-6.162 3.639-11.81 8.522-16.113 14.046-1.509 1.933-2.516 4.23-4.397 5.923.464-4.427 3.072-8.225 5.303-11.545 2.335-3.474 4.919-6.665 7.529-9.105-6.475 3.584-11.434 8.985-16.352 14.431-5.033-6.261-10.782-12.922-17.629-17.043 5.098 4.53 10.205 11.422 13.242 18.282 1.433 3.233 1.068 3.43-.338 6.08-.063.119-.116.231-.175.348-2.104.34-4.183.715-6.244 1.123.236-1.22 1.765-3.167 2.594-4.256 1.04-1.363 2.491-2.39 3.371-3.568-3.068 1.324-5.108 3.878-7.647 5.838-2.763-4.485-6.504-9.145-10.767-11.75 3.86 3.99 7.119 8.49 8.471 14.579a163.542 163.542 0 0 0-9.116 2.315l1.42 3.917a159.34 159.34 0 0 1 8.604-2.18l2.04-.457 1.839-.363c2.072-.41 4.121-.78 6.091-1.096l2.089-.335m424.248 46.457 6.202-.421.265-.019c.621-.042 1.242-.085 1.869-.12.781-.046 1.563-.082 2.345-.114l1.627-.07c2.62-.09 5.254-.122 7.846-.095l2.205.023 1.09.07 1.052.008.786.034.354.015.595.024 1.421.066 1.76.114c2.776.179 5.565.43 8.292.746l.618.072 1.688.211c.566.075 1.13.154 1.693.233l1.106.157 2.769.412 2.515.462a149.887 149.887 0 0 1 13.548 3.136l1.601-3.86a152.867 152.867 0 0 0-14.4-3.36c-.012-.067-.033-.137-.042-.205-.172-1.232.297-2.822.526-4.151.716-4.15 2.02-7.755 4.078-10.468-2.363 2.14-4.39 4.774-5.772 7.57-.487.98-.72 2.07-1.389 2.977-.195-1.973.603-3.862 1.279-5.51.708-1.725 1.552-3.348 2.47-4.647-2.504 2.142-4.184 4.944-5.842 7.76-2.757-2.282-5.86-4.673-9.214-5.859 2.629 1.52 5.472 4.07 7.412 6.791.913 1.282.771 1.4.394 2.684a18.992 18.992 0 0 0-.458 2c-.697-.098-1.395-.194-2.096-.286a1.457 1.457 0 0 1-.114-.411c-.065-.532.473-1.601.75-2.176.333-.69.875-1.267 1.152-1.859-1.22.852-1.88 2.148-2.812 3.231-1.607-1.711-3.656-3.407-5.748-4.163 1.91 1.307 3.624 2.863 4.765 5.135a167.659 167.659 0 0 0-8.502-.767c.966-4.603 2.545-8.62 4.9-11.72-3.031 2.743-5.628 6.121-7.4 9.702-.294.593-.516 1.218-.759 1.834l-.966-.04c.245-1.792.952-3.5 1.587-5.04.905-2.21 1.985-4.292 3.164-5.956-3.207 2.748-5.361 6.336-7.486 9.945-3.533-2.926-7.514-5.988-11.814-7.508 3.28 1.894 6.81 5.042 9.287 8.42a178.32 178.32 0 0 0-8.962.134 12.984 12.984 0 0 0-2.27-1.108c.528.362 1.04.744 1.542 1.14-.803.034-1.606.071-2.41.117-.729.042-1.455.092-2.18.14 3.359-8.103 7.652-14.873 13.057-19.604-6.162 3.639-11.81 8.522-16.113 14.046-1.509 1.933-2.516 4.23-4.397 5.923.464-4.427 3.072-8.225 5.303-11.545 2.335-3.474 4.919-6.665 7.529-9.105-6.475 3.584-11.434 8.985-16.352 14.431-5.033-6.261-10.782-12.922-17.629-17.043 5.098 4.53 10.205 11.422 13.242 18.282 1.433 3.233 1.068 3.43-.338 6.08-.063.119-.116.231-.175.348-2.104.34-4.183.715-6.244 1.123.236-1.22 1.765-3.167 2.594-4.256 1.04-1.363 2.491-2.39 3.371-3.568-3.068 1.324-5.108 3.878-7.647 5.838-2.763-4.485-6.504-9.145-10.767-11.75 3.86 3.99 7.119 8.49 8.471 14.579a163.542 163.542 0 0 0-9.116 2.315l1.42 3.917a159.34 159.34 0 0 1 8.604-2.18l2.04-.457 1.839-.363c2.072-.41 4.121-.78 6.091-1.096l2.089-.335"></path></svg></svg>